<?xml version="1.0" encoding="utf-8"?>
<!-- Generator: Adobe Illustrator 16.0.0, SVG Export Plug-In . SVG Version: 6.00 Build 0)  -->
<!DOCTYPE svg PUBLIC "-//W3C//DTD SVG 1.1//EN" "http://www.w3.org/Graphics/SVG/1.1/DTD/svg11.dtd">
<svg version="1.1" id="Layer_1" xmlns="http://www.w3.org/2000/svg" xmlns:xlink="http://www.w3.org/1999/xlink" x="0px" y="0px"
	 width="296.38px" height="311.621px" viewBox="0 0 296.38 311.621" enable-background="new 0 0 296.38 311.621"
	 xml:space="preserve">
<g>
	<path d="M255.44,73.474h-33.691C221.707,32.977,188.732,0.024,148.199,0c-40.54,0-73.52,32.959-73.569,73.474H40.933
		C18.362,73.474,0,91.84,0,114.41v156.269c0,22.577,18.362,40.942,40.933,40.942H255.44c22.574,0,40.939-18.365,40.939-40.942
		V114.41C296.38,91.84,278.015,73.474,255.44,73.474z M148.193,25c26.745,0.012,48.514,21.753,48.556,48.474H99.63
		C99.679,46.74,121.441,25,148.193,25z M271.38,270.679c0,8.789-7.15,15.942-15.939,15.942H40.933
		c-8.786,0-15.933-7.153-15.933-15.942V114.41c0-8.789,7.147-15.937,15.933-15.937h33.694v21.283c0,6.903,5.597,12.5,12.5,12.5
		s12.5-5.597,12.5-12.5V98.474h97.125v21.271c0,6.903,5.597,12.5,12.5,12.5c6.902,0,12.5-5.597,12.5-12.5V98.474h33.688
		c8.789,0,15.939,7.147,15.939,15.937V270.679z"/>
</g>
</svg>
