<svg version="1.1" id="Layer_1" xmlns="http://www.w3.org/2000/svg" xmlns:xlink="http://www.w3.org/1999/xlink" x="0px" y="0px"
	 width="296.379px" height="311.621px" viewBox="0 0 296.379 311.621" enable-background="new 0 0 296.379 311.621"
	 xml:space="preserve">
<g>
	
		<line fill="none" stroke="#ffffff" stroke-width="22" stroke-linecap="round" stroke-linejoin="round" stroke-miterlimit="10" x1="237.773" y1="202.135" x2="237.773" y2="286.987"/>
		<line fill="none" stroke="#ffffff" stroke-width="22" stroke-linecap="round" stroke-linejoin="round" stroke-miterlimit="10" x1="280.2" y1="244.561" x2="195.346" y2="244.561"/>
</g>
<g>
	<g>
		<path fill="none" d="M109.896,178.096c4.244-1.139,7.403-4.693,8.035-9.043c0.079-0.543,0.116-1.086,0.114-1.625
			c0.002,0.537-0.035,1.08-0.114,1.623c-0.632,4.35-3.79,7.904-8.035,9.043c-50.028,13.426-84.967,52.633-84.967,95.346v0.002
			C24.929,230.727,59.868,191.52,109.896,178.096z"/>
		<path fill="none" d="M148.19,33.235c37.193,0,67.453,30.261,67.453,67.457l0,0C215.643,63.496,185.383,33.234,148.19,33.235
			c-37.196-0.001-67.458,30.26-67.458,67.457l0,0C80.732,63.497,110.994,33.235,148.19,33.235z"/>
		<path fill="#ffffff" d="M24.929,284.918v-0.002v-11.475v-0.002c0-42.713,34.938-81.92,84.967-95.346c4.245-1.139,7.403-4.693,8.035-9.043
			c0.079-0.543,0.116-1.086,0.114-1.623c-0.015-3.77-1.969-7.319-5.246-9.33c-20.078-12.326-32.066-33.786-32.066-57.404
			c0,0,0,0,0-0.001l0,0c0-37.197,30.262-67.458,67.458-67.458c37.193,0,67.453,30.262,67.453,67.458l0,0c0,0.001,0,0.001,0,0.001
			c0,23.619-11.986,45.078-32.066,57.404c-2.098,1.285-3.65,3.202-4.502,5.402h32.879c16.352-16.483,25.689-38.806,25.689-62.808
			c0-49.328-40.129-89.458-89.453-89.458c-49.327,0-89.458,40.131-89.458,89.458c0,24.009,9.344,46.338,25.707,62.823
			c-20.628,8.492-38.563,21.01-52.593,36.822c-18.918,21.324-28.918,46.602-28.918,73.102v15.326h22V284.918z"/>
		<path fill="#ffffff" d="M183.577,158.098c20.08-12.326,32.066-33.785,32.066-57.404c0,0,0,0,0-0.001c0,23.619-11.986,45.078-32.066,57.403
			c-2.098,1.287-3.65,3.203-4.502,5.404C179.926,161.3,181.479,159.383,183.577,158.098z"/>
		<path fill="#ffffff" d="M112.799,158.096c-20.079-12.325-32.066-33.785-32.066-57.403c0,0.001,0,0.001,0,0.001
			c0,23.618,11.988,45.078,32.066,57.404c3.277,2.011,5.231,5.561,5.246,9.33C118.031,163.656,116.076,160.107,112.799,158.096z"/>
	</g>
</g>
</svg>
