<svg xmlns="http://www.w3.org/2000/svg" xmlns:xlink="http://www.w3.org/1999/xlink" version="1.1" id="Layer_1" x="0px" y="0px" enable-background="new 0 0 1024 1024" xml:space="preserve" viewBox="97.39 285.58 849.92 405.32">
<path fill="#1b6439" opacity="1.000000" stroke="none" d=" M167.674011,666.405640   C132.333191,642.552673 109.718262,610.267700 101.382225,568.747437   C91.636375,520.205078 99.174583,474.783997 130.291351,435.230377   C153.322479,405.954681 183.376236,386.907318 220.633057,380.955383   C239.965576,377.866943 259.409027,378.586700 278.586212,383.039856   C280.700439,383.530853 282.767822,383.932983 284.903625,383.669678   C286.645630,376.610748 286.125854,375.843536 278.986328,376.275116   C240.463440,378.603851 213.269073,361.188934 194.955399,328.221069   C193.338043,325.309540 191.869949,322.313324 190.200378,319.433014   C187.908905,315.479889 189.322601,313.323120 193.356903,312.042664   C200.430878,309.797424 207.771210,309.309509 215.052933,309.297455   C242.179138,309.252594 264.081360,319.966797 280.170502,342.001007   C284.811615,348.357056 288.071869,355.458679 290.750000,363.436462   C293.769226,345.882416 300.481567,330.588867 312.062439,317.509430   C327.002930,300.635620 346.374817,292.189056 367.875366,287.741730   C375.041412,286.259460 382.292633,285.360962 389.665466,285.625153   C392.805115,285.737640 394.321503,287.001465 394.226196,290.132202   C393.122894,326.376465 381.681213,357.128632 347.989014,375.645203   C336.310822,382.063324 323.546600,385.168427 310.165222,385.335327   C304.145874,385.410400 303.033600,383.484924 306.016083,378.031982   C311.158142,368.630737 317.908905,360.354095 324.698273,352.140442   C330.271790,345.397736 336.126617,338.887604 341.620117,332.073242   C323.088867,345.229065 309.123230,362.273956 298.643097,382.313782   C296.840912,385.759918 297.920288,387.030182 301.512177,388.215546   C355.988129,406.193329 390.258789,443.508881 401.686005,499.314240   C413.577118,557.385132 398.523834,608.629150 354.374268,649.628540   C329.531921,672.698303 300.101685,686.915588 266.102112,690.159973   C230.823837,693.526306 198.058075,685.408508 167.674011,666.405640  M249.860336,469.333374   C238.881119,473.126587 234.722031,482.202728 232.408051,492.426849   C227.365524,514.706787 227.075897,537.200806 230.531082,559.704468   C231.789642,567.901489 233.821442,576.014648 239.469955,582.643372   C247.935669,592.578247 261.484955,592.498535 269.642609,582.305847   C274.111481,576.722168 276.338043,570.154541 277.681824,563.208862   C281.733002,542.269470 281.464600,521.255615 278.560760,500.246735   C277.371887,491.645355 275.123840,483.219360 269.478851,476.296753   C264.655334,470.381439 258.547455,467.223969 249.860336,469.333374  M117.013115,496.358765   C115.122353,504.620209 113.500351,512.901978 113.243660,521.432251   C113.128601,525.255920 114.144264,526.790894 118.238213,526.724426   C131.395081,526.510559 144.558594,526.547913 157.717133,526.698730   C161.350662,526.740356 162.631500,525.475952 162.843185,521.831177   C163.768051,505.907104 165.267639,490.029907 168.729599,474.422546   C169.486343,471.011017 168.706589,469.843231 165.119858,469.198212   C155.162277,467.407593 144.975159,466.557678 135.368652,463.193237   C131.643494,461.888550 129.968582,463.048767 128.344345,466.227295   C123.551147,475.607391 119.810822,485.359192 117.013115,496.358765  M164.498886,596.937073   C165.881210,596.445496 167.539490,597.052246 168.948395,595.696838   C168.897644,595.046997 168.931427,594.219971 168.757584,593.439270   C165.110641,577.062561 162.472382,560.540588 161.660721,543.762634   C161.532623,541.114563 160.090195,540.377686 157.764954,540.387939   C144.129013,540.448059 130.492844,540.466125 116.857185,540.560913   C115.770409,540.568420 114.472404,540.372070 113.598671,541.618835   C113.526123,542.006531 113.346367,542.490479 113.358788,542.969482   C113.911484,564.280579 119.932526,584.116272 129.493835,603.016296   C130.811722,605.621338 132.544937,605.444885 134.841660,604.650146   C144.265839,601.388672 153.938568,599.056152 164.498886,596.937073  M340.051056,576.170044   C338.904236,581.187988 337.811279,586.219116 336.591919,591.219360   C335.761780,594.623657 336.922699,596.729492 340.323273,597.556152   C349.525391,599.793030 358.745514,601.958069 367.926086,604.279785   C370.240265,604.864929 371.684692,604.379761 372.858215,602.257568   C382.680206,584.495422 387.888611,565.389099 389.645264,545.257080   C389.937622,541.905945 388.549530,540.324402 385.087311,540.345215   C372.923706,540.418457 360.759460,540.401550 348.595459,540.391296   C345.089355,540.388306 343.522888,542.095642 343.320312,545.576782   C342.740753,555.535278 341.855591,565.468567 340.051056,576.170044  M358.509949,526.617188   C367.336487,526.617554 376.164001,526.541504 384.989014,526.656982   C388.369934,526.701172 389.716553,525.455444 389.741425,521.973877   C389.766754,518.432678 389.078156,515.022583 388.610809,511.580994   C386.465607,495.782745 381.690399,480.817535 374.148254,466.736084   C372.637573,463.915588 370.976715,463.063568 367.748474,464.162567   C359.082886,467.112640 350.083801,468.841705 341.064056,470.274292   C337.511993,470.838440 336.573639,472.266571 337.357025,475.575592   C340.847687,490.320129 342.706726,505.291779 343.398407,520.417114   C343.591461,524.638000 344.963654,527.442200 350.030914,526.707214   C352.478882,526.352173 355.018372,526.627991 358.509949,526.617188  M245.639786,636.506775   C245.622025,632.679626 245.447800,628.844788 245.634781,625.027710   C245.791290,621.832214 244.549820,620.148254 241.461426,619.292847   C233.829041,617.178711 226.965530,613.553223 220.953354,608.333984   C219.981689,607.490540 218.685410,606.559998 217.497223,606.499939   C208.239548,606.032043 199.046234,606.473083 190.040924,608.787048   C193.905457,635.785461 226.694351,672.739380 245.645615,671.310730   C245.645615,660.070923 245.645615,648.787476 245.639786,636.506775  M259.010101,642.500122   C259.010101,652.235840 259.010101,661.971497 259.010101,671.713562   C281.418365,671.014771 315.277588,632.175598 314.610199,608.455627   C307.735809,607.036804 300.689178,606.339661 293.551819,606.311707   C291.662781,606.304321 289.908661,606.504272 288.515503,607.977783   C281.680847,615.206726 272.930969,618.657776 263.391205,620.204407   C259.653198,620.810425 258.813568,622.747375 258.896942,626.010071   C259.028870,631.171021 258.978943,636.336609 259.010101,642.500122  M308.266052,490.568604   C315.623779,524.950439 313.969452,558.768188 301.284271,591.606750   C303.757050,593.054749 305.811798,592.459473 307.762329,592.686768   C309.740997,592.917358 311.715973,593.184509 313.687775,593.468933   C320.266449,594.418030 320.782837,593.857666 322.531250,587.567810   C329.358643,563.006714 329.515442,537.892151 328.509155,512.758789   C328.031403,500.825745 325.958893,488.983490 322.857208,477.385864   C322.435303,475.808411 322.351685,473.485413 320.166809,473.846863   C314.984955,474.704132 309.485321,473.680847 304.290192,476.401093   C305.568390,480.881592 306.833618,485.316528 308.266052,490.568604  M216.049942,458.736481   C223.517899,450.509888 231.864548,443.484894 242.661148,440.060059   C245.675949,439.103729 245.708939,437.020538 245.701874,434.615845   C245.668686,423.310913 245.671997,412.005829 245.628906,400.700928   C245.624023,399.419098 245.913910,397.995453 244.116364,396.667694   C237.711426,397.836487 231.629257,400.730804 226.063232,404.662476   C208.663544,416.953217 198.567978,434.503845 190.953049,453.819000   C189.416306,457.716888 192.334732,458.101532 194.700745,458.505035   C199.758957,459.367737 204.863770,459.980835 209.965637,460.551880   C211.907333,460.769257 213.997726,461.056030 216.049942,458.736481  M294.032959,416.455902   C285.915497,407.252502 276.115326,400.631805 264.359253,396.933411   C261.060852,395.895721 259.237915,396.383087 259.271545,400.339264   C259.369354,411.837067 259.372345,423.336090 259.330231,434.834351   C259.321503,437.220856 260.093811,438.389801 262.621124,438.835205   C275.534454,441.111084 285.595001,448.143799 293.867798,458.033112   C294.827301,459.180084 295.737946,460.743500 297.395477,460.510223   C303.704712,459.622345 310.279480,460.341309 316.342560,457.880707   C314.497955,447.627350 304.317841,428.688568 294.032959,416.455902  M140.666672,620.157349   C157.848541,641.974915 178.892380,658.367981 205.607941,666.823425   C203.501663,663.705200 201.021774,661.038391 198.711838,658.231689   C188.106354,645.345764 181.164963,630.487610 175.540054,614.929443   C174.625870,612.400879 173.937820,609.758057 170.137573,610.619751   C161.078278,612.673767 151.969177,614.509155 142.917908,616.596436   C141.671738,616.883850 139.067215,616.795471 140.666672,620.157349  M184.058197,432.625702   C189.378693,421.398407 196.888672,411.597961 204.415161,401.688660   C178.116440,410.252533 156.822388,425.440308 139.983429,447.679932   C141.312347,448.463165 141.950195,449.025635 142.690079,449.246857   C152.093033,452.058350 161.809906,453.419495 171.392441,455.404846   C173.824905,455.908813 174.536942,454.222321 175.297791,452.472137   C178.081940,446.067657 180.906647,439.680817 184.058197,432.625702  M326.257446,623.602478   C320.885101,637.775085 313.433136,650.797241 304.427856,663.104858   C327.720856,653.325012 347.056885,638.676819 362.704590,617.748474   C356.294403,616.136230 350.729065,614.687622 345.139221,613.340515   C331.730682,610.109131 331.726044,610.128357 326.257446,623.602478  M179.355316,571.276855   C180.930054,578.860352 182.302765,586.496460 184.968948,594.138245   C192.393112,593.362915 199.539856,592.616516 207.007233,591.836670   C206.511490,590.005737 206.327805,588.857727 205.897675,587.810913   C201.332230,576.701416 198.712296,565.106750 196.828003,553.276550   C194.691574,539.863220 194.537659,540.053284 181.254669,540.330688   C177.120255,540.417053 175.970245,542.034119 176.417511,545.735413   C177.410782,553.955078 178.350281,562.181152 179.355316,571.276855  M344.378479,429.125916   C333.548340,419.995209 321.988281,412.107666 308.270294,406.639954   C308.270294,408.241150 308.137329,408.657593 308.289276,408.874054   C318.102875,422.857178 325.153107,438.224762 330.999237,454.192017   C331.808594,456.402618 333.239685,456.634033 335.338318,456.223633   C342.332245,454.855804 349.389435,453.796631 356.353058,452.297272   C358.608459,451.811707 361.403229,452.021301 363.017883,449.448425   C358.056213,441.791351 351.522186,435.653870 344.378479,429.125916  M195.827896,518.579712   C197.376251,505.177490 200.003891,492.017059 204.614334,479.299377   C205.738632,476.198029 204.732117,474.583710 201.347397,474.337921   C198.041443,474.097931 194.653183,474.002350 191.478226,473.168701   C186.156387,471.771301 184.600052,474.430969 183.285995,478.929810   C179.527817,491.796478 178.628189,505.047485 177.429810,518.257446   C176.670609,526.626160 176.886292,526.655212 185.724838,526.639038   C186.557358,526.637512 187.389877,526.636780 188.222382,526.632874   C195.370758,526.599182 195.370758,526.599060 195.827896,518.579712  z"/>
<path fill="#1b6439" opacity="1.000000" stroke="none" d=" M563.421997,429.575684   C578.750671,394.507690 625.929077,387.798279 649.892517,417.144043   C659.050171,428.358612 661.618225,441.879761 661.232239,456.044922   C661.113586,460.400696 658.230774,461.363342 654.376770,461.350677   C634.055176,461.283936 613.733154,461.330505 593.411316,461.366058   C587.014771,461.377228 586.474792,462.212219 587.921082,468.303040   C590.287354,478.268738 595.976990,485.212769 606.198486,487.243256   C615.815430,489.153687 623.971863,485.954315 629.988220,478.072205   C631.900696,475.566650 634.145264,474.542267 637.247498,474.625122   C642.573914,474.767517 647.908081,474.592896 653.237061,474.675476   C658.090149,474.750702 659.275208,476.265869 657.688354,480.887787   C653.778076,492.277496 645.964539,500.489960 634.935242,504.685059   C613.600525,512.799866 593.019470,511.826294 575.053650,496.112823   C564.791504,487.137177 560.106812,474.967926 558.821167,461.707336   C557.771545,450.880951 558.664246,440.082733 563.421997,429.575684  M622.396240,442.646851   C623.393738,442.646881 624.391235,442.651184 625.388733,442.646301   C632.061584,442.613556 632.829834,441.485260 630.677612,434.883759   C627.430603,424.924774 620.117798,419.973145 609.016357,420.216858   C599.137390,420.433777 592.138550,426.345642 589.342102,436.835571   C587.843567,442.456543 588.068848,442.652100 593.997925,442.615204   C603.139099,442.558289 612.281067,442.629639 622.396240,442.646851  z"/>
<path fill="#1b6439" opacity="1.000000" stroke="none" d=" M757.924377,418.980042   C778.897278,392.120483 821.770935,392.747284 841.800354,417.435883   C849.149902,426.495148 853.210266,436.916748 853.284607,448.632812   C853.323486,454.754150 853.634827,460.859283 852.536621,467.022827   C848.044495,492.233795 825.777893,507.795044 803.967773,509.330688   C777.365479,511.203735 754.359314,493.862061 748.903870,469.152649   C744.962585,451.301483 746.869019,434.497833 757.924377,418.980042  M781.333862,431.869690   C773.574890,444.403656 773.274597,457.625153 778.333313,471.028931   C781.693665,479.932709 788.805969,484.772034 798.144348,485.487488   C807.338928,486.191925 815.280273,483.082550 820.313904,474.876404   C827.216553,463.623352 827.489014,451.485107 823.407227,439.377258   C816.972290,420.289215 795.102051,416.194946 781.333862,431.869690  z"/>
<path fill="#1b6439" opacity="1.000000" stroke="none" d=" M525.808105,637.074585   C520.788513,638.106689 516.197632,637.926575 511.504028,637.618347   C506.780731,637.308105 505.580963,635.171814 505.624725,630.977356   C505.781036,615.987122 505.848389,600.995056 505.804596,586.004028   C505.780365,577.708130 503.045135,573.870605 496.419525,572.138184   C487.348633,569.766418 479.402344,575.584656 479.321777,584.930542   C479.192474,599.921631 479.301361,614.914612 479.281708,629.906799   C479.272797,636.684143 478.346497,637.845520 471.602295,638.058105   C453.731323,638.621582 455.654510,637.653442 455.652039,623.544067   C455.648376,602.388367 455.637817,581.232605 455.658295,560.076904   C455.664520,553.675842 456.526581,552.811157 462.782135,552.716064   C465.779846,552.670471 468.778809,552.708740 471.777191,552.705261   C474.851044,552.701721 477.256073,553.152771 477.521637,557.183777   C477.730652,560.355957 479.892242,559.842834 481.764709,558.337830   C484.643860,556.023682 487.702148,554.043091 491.210266,552.835571   C502.746460,548.864807 512.790161,551.008606 521.110046,560.172485   C521.555725,560.663391 522.026489,561.138672 522.534302,561.562866   C522.776245,561.765076 523.132751,561.830139 523.825195,562.119324   C526.296143,560.289368 528.870789,558.229309 531.595642,556.392151   C541.768860,549.533142 552.543762,548.982056 563.265015,554.552002   C573.508423,559.873596 577.168213,569.409973 577.295776,580.357971   C577.495728,597.513428 577.242676,614.674072 577.424561,631.829895   C577.466553,635.793701 576.269104,637.559387 572.211121,637.810608   C568.209229,638.058167 564.236206,638.166260 560.240295,637.925110   C556.231934,637.683228 554.502136,635.928284 554.565125,631.599304   C554.788025,616.277222 554.687073,600.949646 554.617676,585.624573   C554.595032,580.619202 553.574158,575.972229 548.563782,573.364990   C543.334839,570.643982 538.306458,571.169312 533.459961,574.328674   C529.992737,576.588989 528.266479,579.734497 528.273010,583.951660   C528.296265,598.942932 528.249756,613.934631 528.162415,628.925720   C528.146240,631.704468 528.533020,634.658386 525.808105,637.074585  z"/>
<path fill="#1b6439" opacity="1.000000" stroke="none" d=" M507.999939,401.616455   C519.992065,401.601959 531.486145,401.708557 542.975098,401.514191   C547.058838,401.445099 548.109253,402.931671 548.502136,406.972870   C549.498108,417.216949 546.652161,425.298981 539.499756,433.074432   C526.891846,446.780609 515.400208,461.514465 503.467041,475.839569   C501.892365,477.729889 500.469666,479.746765 498.241211,482.669403   C504.884918,482.669403 510.486786,482.667328 516.088623,482.669861   C525.915222,482.674316 535.742310,482.739349 545.568176,482.659546   C549.548523,482.627258 551.421387,484.345123 551.322388,488.355316   C551.236145,491.850586 551.334595,495.350067 551.319519,498.847534   C551.289368,505.851501 550.398682,506.881653 543.217590,506.989532   C532.560364,507.149658 521.899902,507.116699 511.240784,507.117340   C496.917480,507.118225 482.594055,507.105560 468.270966,507.033051   C461.482819,506.998718 461.559906,506.062836 460.518646,499.680847   C458.505035,487.339142 466.116974,479.914459 472.940796,471.766022   C484.376404,458.110535 495.629211,444.301880 506.935455,430.538391   C508.052643,429.178436 509.007019,427.684753 510.829773,425.151031   C505.159271,425.151031 500.730988,425.150452 496.302704,425.151184   C487.475861,425.152649 478.648956,425.170685 469.822144,425.151215   C463.630798,425.137573 462.665924,424.154816 462.614441,417.846802   C462.585907,414.349518 462.817139,410.839050 462.587433,407.357239   C462.293976,402.909302 464.342865,401.541473 468.526672,401.585632   C481.516449,401.722717 494.508636,401.625305 507.999939,401.616455  z"/>
<path fill="#1b6439" opacity="1.000000" stroke="none" d=" M747.313110,633.683594   C747.210754,635.575806 746.791870,636.900574 745.228760,637.182007   C739.463013,638.220398 733.662292,638.640442 727.864563,637.452942   C724.525574,636.769043 724.681946,634.040588 724.681641,631.526917   C724.679810,617.196716 724.733032,602.866455 724.721436,588.536255   C724.705078,568.373718 724.617310,548.211243 724.625854,528.048706   C724.628906,520.996582 726.240784,519.455811 733.215637,519.760925   C736.697266,519.913208 740.159363,520.476624 743.640381,520.687439   C747.217224,520.903931 747.351318,523.320984 747.349182,525.977539   C747.337646,540.474670 747.346558,554.971741 747.348145,569.468872   C747.348694,574.100708 747.348267,578.732483 747.348267,583.353210   C749.742981,583.803955 750.341309,582.114014 751.264954,581.123718   C758.537048,573.327148 765.863708,565.576172 772.931152,557.596436   C776.062378,554.061096 779.574036,552.324646 784.295044,552.629944   C787.779785,552.855286 791.291199,552.641235 794.789917,552.688538   C796.578308,552.712646 798.744019,552.291992 799.570374,554.452881   C800.342834,556.472778 798.770630,557.934631 797.537109,559.225098   C793.623413,563.319458 789.595459,567.304382 785.627197,571.346741   C782.359680,574.675354 779.243469,578.166077 775.815430,581.318787   C773.354431,583.582153 773.627502,585.479614 775.067383,588.237854   C782.485046,602.446899 791.788818,615.490540 800.026184,629.188660   C803.896851,635.625305 803.099548,637.157104 795.760498,637.845032   C784.170471,638.931519 774.103088,638.209717 769.293518,624.509888   C766.435059,616.367798 760.911499,609.161316 756.548950,601.468628   C750.085083,605.049744 746.210632,609.130249 747.209778,616.738708   C747.919495,622.143677 747.337097,627.718262 747.313110,633.683594  z"/>
<path fill="#1b6439" opacity="1.000000" stroke="none" d=" M813.459961,627.506836   C799.024475,612.338379 799.423218,581.634094 810.243042,567.035156   C820.598633,553.062622 835.365051,548.737305 851.872070,551.212830   C877.987366,555.129211 886.337341,575.755554 885.331360,597.793396   C885.158997,601.571350 882.595764,601.347351 880.059570,601.350220   C864.412476,601.367798 848.765442,601.372925 833.118347,601.387390   C825.740479,601.394165 824.787109,602.831055 827.412598,609.954407   C832.556152,623.909607 850.220947,627.129578 859.678345,615.756653   C861.271729,613.840515 862.977722,612.763489 865.427673,612.298279   C868.745239,611.668274 872.053650,611.718262 875.373901,611.736877   C882.418396,611.776428 884.259827,614.618652 881.180847,621.153015   C877.846741,628.228760 872.292419,633.357117 865.096619,636.103088   C854.533630,640.134033 843.635071,641.528259 832.384277,638.581482   C825.090088,636.671021 818.701355,633.501465 813.459961,627.506836  M827.798157,586.403870   C837.571228,586.471619 847.345520,586.466919 857.116699,586.640625   C861.389526,586.716614 862.282410,584.753967 861.255737,581.017517   C858.838074,572.218445 850.805115,567.097778 841.374207,568.440308   C832.928284,569.642578 827.240234,576.686096 827.798157,586.403870  z"/>
<path fill="#1b6439" opacity="1.000000" stroke="none" d=" M593.983521,595.982422   C602.826660,587.812561 613.680054,586.109497 624.621521,584.701721   C627.752563,584.298950 630.915649,583.896179 634.061401,583.915894   C638.848633,583.945862 639.279358,581.144287 638.321838,577.646240   C637.169739,573.437561 634.831726,570.185486 630.223816,569.011597   C624.095337,567.450378 617.729919,568.013428 614.204651,573.000488   C608.849915,580.575684 601.693970,579.311401 594.539307,579.229797   C590.371399,579.182373 590.337769,576.076172 590.958435,573.114014   C592.825256,564.203796 598.738647,558.516846 606.623413,554.898865   C618.143555,549.612732 630.178589,549.252136 642.137390,553.083740   C653.699768,556.788330 660.291687,566.249939 660.346863,578.339233   C660.428162,596.147095 660.282104,613.956848 660.488342,631.762817   C660.537903,636.047424 658.970337,637.941223 654.821899,637.937744   C653.823486,637.936890 652.825256,637.999023 651.826660,638.014526   C642.531494,638.159058 642.042053,637.877686 637.852905,629.654541   C632.043823,634.872925 625.622620,638.671265 617.809998,639.951355   C606.627319,641.783569 593.703796,636.638550 589.088684,628.075012   C583.523987,617.749512 585.326843,605.363220 593.983521,595.982422  M614.583252,604.025696   C610.853943,606.602417 608.897339,610.191772 609.544556,614.661804   C610.059570,618.218445 612.556335,620.514160 616.030701,621.499329   C627.182800,624.661438 638.897888,615.310425 638.710876,603.629883   C638.660278,600.468262 637.782410,598.972656 634.431396,599.323059   C627.847839,600.011414 621.181519,600.263123 614.583252,604.025696  z"/>
<path fill="#1b6439" opacity="1.000000" stroke="none" d=" M676.787598,466.000000   C676.754639,448.669830 676.720215,431.839691 676.691956,415.009521   C676.689148,413.343201 676.670532,411.674194 676.751038,410.010895   C677.129456,402.197571 677.721558,401.647797 685.574585,401.637543   C689.574158,401.632324 693.573853,401.598846 697.573181,401.627747   C703.336304,401.669373 704.120605,402.454468 704.294434,408.294312   C704.343689,409.948364 704.301941,411.605164 704.301941,413.311157   C706.268860,413.529572 706.783569,412.043365 707.570129,411.163177   C715.327515,402.481903 724.948181,398.676605 736.563293,399.614807   C740.436401,399.927643 742.357056,401.641815 742.331726,405.558807   C742.295105,411.224548 742.236938,416.892639 742.358521,422.556030   C742.432190,425.990326 740.880493,427.323090 737.556458,427.375031   C733.742615,427.434662 729.897583,426.858276 726.112610,427.831909   C713.793762,431.000702 706.300903,440.969910 705.265747,454.560455   C704.149902,469.211029 704.514099,483.866608 704.327393,498.522491   C704.232178,505.993591 703.251465,507.013031 696.004883,506.912750   C691.193359,506.846191 686.387817,507.691254 681.554321,506.611908   C679.054138,506.053589 677.897278,505.021912 677.540588,502.428040   C675.896667,490.471985 677.226807,478.469879 676.787598,466.000000  z"/>
<path fill="#1b6439" opacity="1.000000" stroke="none" d=" M927.611938,594.684631   C927.596375,600.226196 926.924438,605.333801 928.207031,610.486633   C929.393372,615.252991 931.968506,617.718628 936.892700,617.692993   C938.725159,617.683472 940.558228,617.771484 942.390747,617.762512   C945.487854,617.747314 947.008545,619.459290 947.187012,622.354248   C947.361084,625.177307 947.310364,628.016357 947.303040,630.848267   C947.285461,637.695190 946.496948,638.732117 939.748108,639.187012   C935.270874,639.488831 930.722351,639.598694 926.265015,639.173645   C911.903564,637.804077 904.882141,630.055481 904.697021,615.466736   C904.536255,602.804321 904.466919,590.135986 904.686340,577.476013   C904.758606,573.306030 903.308655,571.610779 899.271179,571.934814   C898.940918,571.961243 898.605286,571.920166 898.272156,571.910645   C886.672180,571.577881 884.256714,568.342407 886.927734,556.793945   C887.524353,554.214600 888.829712,552.582458 891.695862,552.676941   C892.527771,552.704407 893.361877,552.667969 894.194946,552.657898   C906.139587,552.513184 904.540222,554.188843 904.663330,541.864441   C904.795776,528.598694 902.826904,529.662964 917.053223,529.665100   C927.346680,529.666626 927.346619,529.694885 927.347839,540.096497   C927.349182,552.443787 927.349243,552.443726 939.662109,552.645752   C945.530945,552.742004 946.197327,553.407654 946.329346,559.306091   C946.615356,572.080383 946.615295,572.080322 933.913269,572.229126   C927.355652,572.305969 927.501709,572.310486 927.302979,578.844482   C927.146118,584.003601 928.666260,589.116394 927.611938,594.684631  z"/>
<path fill="#1b6439" opacity="1.000000" stroke="none" d=" M695.419373,587.771606   C695.366394,602.670349 695.201233,617.145203 695.438171,631.613464   C695.511902,636.114197 694.051392,638.110168 689.543640,637.977478   C685.557068,637.860107 681.558533,638.088684 677.575989,637.916077   C674.281860,637.773376 672.597839,636.130310 672.613586,632.484985   C672.720093,607.862732 672.716858,583.239746 672.647461,558.617310   C672.635376,554.325256 674.577515,552.565735 678.707764,552.667297   C682.033020,552.749146 685.376282,552.864014 688.685913,552.618408   C692.911011,552.304871 695.088379,553.640320 694.324219,558.226440   C694.166138,559.175293 694.392639,560.188232 694.492615,562.185730   C699.522095,556.738953 704.322998,552.322144 711.270996,551.157227   C717.721558,550.075684 719.389771,551.223816 719.402344,557.786072   C719.408752,561.113342 719.109741,564.466431 719.426697,567.761902   C719.891357,572.592957 717.794617,574.253540 713.171875,574.380920   C703.146301,574.657166 698.659241,578.104065 695.419373,587.771606  z"/>
</svg>